<?xml version="1.0" encoding="utf-8"?>
<!-- Generator: Adobe Illustrator 21.1.0, SVG Export Plug-In . SVG Version: 6.00 Build 0)  -->
<svg version="1.1" id="Capa_1" xmlns="http://www.w3.org/2000/svg" xmlns:xlink="http://www.w3.org/1999/xlink" x="0px" y="0px"
	 viewBox="0 0 512 512" style="enable-background:new 0 0 512 512;" xml:space="preserve">
<style type="text/css">
	.st0{fill:#EDB21D;}
</style>
<g>
	<path class="st0" d="M49.1,262.6c-3.5,0-6.4-2.6-6.4-6.2V256c0-22.4,3.4-44.4,10.2-65.5c1.1-3.4,4.7-5.2,8.1-4.1
		c3.4,1.1,5.2,4.7,4.1,8.1c-6.4,19.8-9.6,40.5-9.6,61.6C55.5,259.5,52.7,262.6,49.1,262.6z M318.1,446.7
		c-19.9,6.5-40.8,9.8-61.9,9.8c-3.5,0-6.4,2.9-6.4,6.4s2.9,6.4,6.4,6.4l0,0c22.5,0,44.7-3.5,65.9-10.4c3.4-1.1,5.2-4.7,4.1-8.1
		C325.1,447.4,321.5,445.6,318.1,446.7z M65.4,318.3c-1.1-3.4-4.7-5.2-8.1-4.1c-3.4,1.1-5.2,4.7-4.1,8.1
		c6.9,21.2,17.2,41.2,30.4,59.4c1.3,1.7,3.2,2.6,5.2,2.6c1.3,0,2.6-0.4,3.8-1.2c2.9-2.1,3.5-6.1,1.4-8.9
		C81.5,357.1,71.9,338.3,65.4,318.3z M317.4,65.1c20,6.4,38.8,15.9,55.9,28.3c1.1,0.8,2.4,1.2,3.7,1.2c2,0,3.9-0.9,5.2-2.6
		c2.1-2.9,1.4-6.9-1.4-8.9c-18.2-13.2-38.2-23.3-59.5-30.1c-3.4-1.1-7,0.8-8.1,4.1C312.2,60.4,314,64,317.4,65.1z M88.3,141.2
		c2,0,3.9-0.9,5.2-2.6c12.4-17.1,27.2-32,44.2-44.5c2.9-2.1,3.5-6.1,1.4-8.9c-2.1-2.9-6.1-3.5-8.9-1.4c-18.1,13.2-33.9,29.1-47,47.3
		c-2.1,2.9-1.4,6.9,1.4,8.9C85.7,140.8,87,141.2,88.3,141.2z M191.5,65.8c0.7,0,1.3-0.1,2-0.3c19.9-6.5,40.7-9.9,61.9-9.9
		c3.5,0,6.4-2.9,6.4-6.4c0-3.5-2.9-6.4-6.4-6.4h0c-22.5,0.1-44.6,3.6-65.8,10.6c-3.4,1.1-5.2,4.7-4.1,8.1
		C186.3,64.1,188.8,65.8,191.5,65.8z M194.3,446.8c-20-6.5-38.8-16-55.9-28.4c-2.9-2.1-6.9-1.4-8.9,1.4c-2.1,2.9-1.4,6.9,1.4,9
		c18.2,13.2,38.2,23.3,59.5,30.2c0.7,0.2,1.3,0.3,2,0.3c2.7,0,5.2-1.7,6.1-4.4C199.5,451.5,197.6,447.9,194.3,446.8z M418.3,373.8
		c-12.4,17-27.3,31.9-44.3,44.4c-2.9,2.1-3.5,6.1-1.4,8.9c1.3,1.7,3.2,2.6,5.2,2.6c1.3,0,2.6-0.4,3.8-1.2
		c18.1-13.2,34-29.1,47.1-47.2c2.1-2.9,1.4-6.9-1.4-8.9C424.3,370.3,420.3,370.9,418.3,373.8z M462.9,249.2c-3.5,0-6.4,3.3-6.4,6.8
		c0,21.1-3.3,42-9.8,61.9c-1.1,3.4,0.8,7,4.1,8.1c0.7,0.2,1.3,0.3,1.9,0.3c2.7,0,5.2-1.7,6.1-4.4c6.9-21.2,10.4-43.4,10.4-65.9v-0.8
		C469.3,251.6,466.4,249.2,462.9,249.2z M446.5,193.3c0.9,2.7,3.4,4.4,6.1,4.4c0.7,0,1.3-0.1,2-0.3c3.4-1.1,5.2-4.7,4.1-8.1
		c-7-21.2-17.3-41.2-30.6-59.3c-2.1-2.9-6.1-3.5-8.9-1.4c-2.8,2.1-3.5,6.1-1.4,8.9C430.3,154.6,439.9,173.4,446.5,193.3z M512,256
		c0,141.1-114.9,256-256,256C114.8,512,0,397.1,0,256C0,114.8,114.8,0,256,0C397.1,0,512,114.8,512,256z M486.4,256
		C486.4,129,383,25.6,256,25.6S25.6,129,25.6,256S129,486.4,256,486.4S486.4,383,486.4,256z M277.6,266.5
		c-4.3-1.6-10.8-2.4-19.6-2.4h-20v33.5c0.1,4.7,0.3,7.5,0.6,8.3c0.4,1,1,1.8,1.8,2.2c0.8,0.4,3.1,0.6,6.9,0.6h11.3
		c6.6,0,12-0.6,16.3-1.9c4.3-1.2,8-3.7,11-7.6c3-3.9,4.5-8.4,4.5-13.8c0-4.6-1.1-8.4-3.2-11.6C285.1,270.5,281.9,268.1,277.6,266.5z
		 M440.8,256c0,102.1-82.7,184.8-184.8,184.8c-102,0-184.8-82.7-184.8-184.8C71.2,154,154,71.2,256,71.2
		C358.1,71.2,440.8,154,440.8,256z M330.5,289.4c0-6.9-1.6-13.1-4.9-18.6c-3.3-5.6-7.7-9.9-13.2-13.1c-3.9-2.2-9.4-4.3-16.6-6.1
		c6.7-2.3,12.2-5.2,16.3-8.7c4.1-3.5,7.3-7.6,9.4-12.1c2.2-4.6,3.3-9.4,3.3-14.5c0-7-2.1-13.5-6.2-19.3c-4.1-5.9-10-10.4-17.7-13.5
		c-3-1.2-6.6-2.1-10.4-2.9v-27.3h-26.2v25.4h-16.8v-25.4h-26.2v25.4h-39.9v21.4h6.1c4.1,0,6.8,0.4,8.3,1.1c1.4,0.7,2.5,1.7,3,3
		c0.6,1.3,0.9,4.2,0.9,8.8v86.2c0,4.5-0.3,7.4-0.9,8.7c-0.6,1.3-1.6,2.3-3,3c-1.4,0.7-4.2,1.1-8.3,1.1h-6.1v21.4h39.9v25.4h26.2
		v-25.4h14.9c0.7,0,1.3,0,1.9,0v25.4h26.2V331c4.4-0.8,8.3-1.9,11.5-3.3c9-3.6,16-8.8,21-15.8C328,305.2,330.5,297.6,330.5,289.4z
		 M274.6,239.1c4.3-1.5,7.4-3.7,9.6-6.7c2.1-3,3.2-6.5,3.2-10.4c0-4.1-1-7.5-3-10.4c-2-2.9-5-4.9-8.8-6.1
		c-3.9-1.2-10.7-1.8-20.6-1.8H238v37.7H255C263.8,241.3,270.4,240.6,274.6,239.1z"/>
</g>
</svg>
